<svg xmlns="http://www.w3.org/2000/svg" viewBox="0 0 58 82.5" x="0px" y="0px"><path fill-rule="evenodd" d="M587,541 L592.007019,541 C595.866744,541 599,544.139953 599,548.000038 L599,595.999962 C599,599.866039 595.870093,603 592.007019,603 L547.992981,603 C544.133256,603 541,599.860047 541,595.999962 L541,548.000038 C541,544.133961 544.129907,541 547.992981,541 L553,541 L553,538 C553,537.447715 553.447715,537 554,537 C554.552285,537 555,537.447715 555,538 L555,541 L585,541 L585,538 C585,537.447715 585.447715,537 586,537 C586.552285,537 587,537.447715 587,538 L587,541 Z M587,543 L587,545.987227 C587,546.539512 586.552285,546.987227 586,546.987227 C585.447715,546.987227 585,546.539512 585,545.987227 L585,543 L555,543 L555,545.987227 C555,546.539512 554.552285,546.987227 554,546.987227 C553.447715,546.987227 553,546.539512 553,545.987227 L553,543 L547.992981,543 C545.235057,543 543,545.237952 543,548.000038 L543,595.999962 C543,598.756432 545.238783,601 547.992981,601 L592.007019,601 C594.764943,601 597,598.762048 597,595.999962 L597,548.000038 C597,545.243568 594.761217,543 592.007019,543 L587,543 Z M571,581.001286 C574.587531,581.011456 576.011138,581.086828 577.459529,581.397198 C579.731673,581.884086 581,583.02558 581,585 C581,589.213017 576.396205,593 570,593 C563.603795,593 559,589.213017 559,585 C559,583.02558 560.268327,581.884086 562.540471,581.397198 C563.988862,581.086828 565.412469,581.011456 569,581.001286 L569,574.033345 C567.239483,574.172564 565.368817,574.670994 563.491686,575.424778 C562.703734,575.741189 561.971862,576.080331 561.31647,576.418774 C560.927445,576.619665 560.654009,576.773431 560.516104,576.856526 C560.043057,577.141562 559.42851,576.98915 559.143474,576.516104 C558.858438,576.043057 559.01085,575.42851 559.483896,575.143474 C559.65783,575.038669 559.969132,574.86361 560.398808,574.641727 C561.107915,574.275546 561.896629,573.910064 562.746407,573.568825 C564.852782,572.722986 566.966406,572.166618 569,572.027704 L569,566.02057 C566.408141,566.161654 563.788913,566.849356 561.258376,567.918024 C560.256416,568.34116 559.341434,568.794379 558.53379,569.246555 C558.05462,569.514828 557.722004,569.72016 557.555925,569.831233 C557.096848,570.138261 556.475796,570.015002 556.168767,569.555925 C555.861739,569.096848 555.984998,568.475796 556.444075,568.168767 C556.6524,568.029441 557.029622,567.796573 557.556756,567.501447 C558.426284,567.014624 559.407001,566.528844 560.480297,566.075582 C563.244552,564.908213 566.11957,564.158698 569,564.017787 L569,558.031629 C568.277115,558.084874 567.492802,558.193355 566.656344,558.352765 C565.319224,558.60759 563.889696,558.984081 562.419617,559.450059 C561.402572,559.772437 560.426897,560.118143 559.528454,560.463622 C559.214656,560.584287 558.933306,560.696143 558.688838,560.796244 C558.543883,560.855598 558.444577,560.897344 558.395335,560.918537 C557.888041,561.136874 557.2998,560.902629 557.081463,560.395335 C556.863126,559.888041 557.097371,559.2998 557.604665,559.081463 C557.664567,559.055682 557.774786,559.009349 557.930979,558.945393 C558.188422,558.839979 558.483082,558.722832 558.810633,558.596879 C559.744613,558.237734 560.757577,557.878816 561.815299,557.543544 C563.355759,557.055257 564.859684,556.659172 566.281928,556.388124 C567.244822,556.204618 568.153154,556.081884 569,556.026797 L569,553 C569,552.447715 569.447715,552 570,552 C570.552285,552 571,552.447715 571,553 L571,556.028721 C571.846656,556.085073 572.754934,556.208306 573.71788,556.391627 C575.134642,556.661343 576.632733,557.053671 578.167477,557.536508 C579.228403,557.870281 580.244779,558.227596 581.182148,558.585133 C581.510878,558.710519 581.806627,558.827136 582.06504,558.93207 C582.2218,558.995725 582.332411,559.041832 582.392501,559.067475 C582.900466,559.284248 583.136524,559.871763 582.919752,560.379728 C582.702979,560.887693 582.115464,561.123751 581.607499,560.906978 C581.55798,560.885846 581.45819,560.84425 581.312574,560.78512 C581.067027,560.685411 580.784477,560.573998 580.469384,560.453814 C579.567262,560.10972 578.587863,559.765405 577.56727,559.444322 C576.101809,558.983281 574.67693,558.610126 573.343848,558.356341 C572.507443,558.19711 571.723079,558.088163 571,558.033767 L571,564.019307 C573.875395,564.163741 576.74581,564.909498 579.506361,566.068367 C580.582404,566.520087 581.565761,567.004216 582.437722,567.489383 C582.966311,567.783495 583.344588,568.015548 583.553472,568.154359 C584.013452,568.460033 584.138542,569.080719 583.832868,569.540699 C583.527194,570.000679 582.906508,570.125769 582.446528,569.820095 C582.27981,569.709305 581.946042,569.504555 581.465296,569.237064 C580.655032,568.786226 579.73719,568.334351 578.732214,567.912465 C576.204458,566.851322 573.588603,566.166745 571,566.022229 L571,572.02967 C573.02841,572.171418 575.137062,572.723898 577.239119,573.561439 C578.091627,573.901112 578.883056,574.264921 579.59473,574.629422 C580.025931,574.850272 580.338357,575.024498 580.512882,575.128768 C580.986996,575.412025 581.141716,576.025995 580.858459,576.500109 C580.575202,576.974223 579.961231,577.128943 579.487118,576.845686 C579.348474,576.762854 579.07375,576.609652 578.683007,576.409524 C578.024776,576.072395 577.289881,575.734573 576.498838,575.419391 C574.624887,574.672736 572.757704,574.177439 571,574.035542 L571,581.001286 Z M570,583 C562.752365,583 561,583.375507 561,585 C561,588.012768 564.631546,591 570,591 C575.368454,591 579,588.012768 579,585 C579,583.375507 577.247635,583 570,583 Z" transform="translate(-541 -537)"/><text x="0" y="81" fill="#000000" font-size="5px" font-weight="bold" font-family="'Helvetica Neue', Helvetica, Arial-Unicode, Arial, Sans-serif">Created by Andrejs Kirma</text><text x="0" y="86" fill="#000000" font-size="5px" font-weight="bold" font-family="'Helvetica Neue', Helvetica, Arial-Unicode, Arial, Sans-serif">from the Noun Project</text></svg>